# xmcd
#
# Track frame offsets:
#	150
#	27762
#	55899
#	74671
#	107550
#	125343
#	146641
#	176606
#	199406
#	228460
#	252132
#	272199
#	289684
#	309626
#
# Disc length: 4502 seconds
#
# Revision: 1
# Processed by: cddbd v1.5.2PL0 Copyright (c) Steve Scherf et al.
# Submitted via: audiograbber 1.83.01
#
DISCID=d511940e
DTITLE=Grateful Dead - 72-03-05 Winterland Arena, San Francisco CA
DYEAR=1900
DGENRE=
TTITLE0=Bertha
TTITLE1=Black Throated Wind
TTITLE2=Mr Charlie
TTITLE3=Sugaree
TTITLE4=Greatest Story Ever Told
TTITLE5=Next Time You See Me
TTITLE6=Tennessee Jed
TTITLE7=Jack Straw
TTITLE8=China Cat Sunflower
TTITLE9=I Know You Rider
TTITLE10=Mexicali Blues
TTITLE11=You Win Again
TTITLE12=El Paso
TTITLE13=Casey Jones
EXTD=
EXTT0=
EXTT1=
EXTT2=
EXTT3=
EXTT4=
EXTT5=
EXTT6=
EXTT7=
EXTT8=
EXTT9=
EXTT10=
EXTT11=
EXTT12=
EXTT13=
PLAYORDER=
